<?xml version="1.0" encoding="utf-8"?>
<!-- Generator: Adobe Illustrator 19.1.0, SVG Export Plug-In . SVG Version: 6.00 Build 0)  -->
<!DOCTYPE svg PUBLIC "-//W3C//DTD SVG 1.1//EN" "http://www.w3.org/Graphics/SVG/1.1/DTD/svg11.dtd">
<svg version="1.1" id="Layer_1" xmlns="http://www.w3.org/2000/svg" xmlns:xlink="http://www.w3.org/1999/xlink" x="0px" y="0px"
	 viewBox="0 0 282.8 71.4" style="enable-background:new 0 0 282.8 71.4;" xml:space="preserve">
<style type="text/css">
	.st0{fill:#646569;}
	.st1{fill:#B01657;}
	.st2{fill:#AFAEB0;}
	.st3{fill:#EDAA00;}
</style>
<g id="XMLID_1_">
	<g id="XMLID_640_">
		<path id="XMLID_858_" class="st0" d="M56.5,57.3c0.7,0,1.4,0.1,2.1,0.3c0.5,0.1,0.6,0.4,0.6,0.6c0,0.3-0.1,0.6-0.3,0.9
			c-0.8-0.4-1.6-0.6-2.4-0.6c-1.8,0-2.9,1.3-2.9,4.2c0,3,1.2,4.3,2.9,4.3c0.8,0,1.8-0.2,2.6-0.7c0.2,0.2,0.3,0.5,0.3,0.8
			c0,0.3-0.1,0.5-0.6,0.6c-0.7,0.2-1.5,0.3-2.3,0.3c-2.6,0-4.3-1.7-4.3-5.4C52.2,58.9,54,57.3,56.5,57.3z"/>
		<path id="XMLID_856_" class="st0" d="M66.2,68v-4.9c0-0.8-0.3-1.4-1.3-1.4c-0.7,0-1.4,0.4-1.8,0.9c-0.2,0.2-0.3,0.5-0.3,0.8V68
			h-1.3V57h1.3v4.6c0.6-0.7,1.6-1.1,2.4-1.1c1.6,0,2.3,0.9,2.3,2.3V68H66.2z"/>
		<path id="XMLID_853_" class="st0" d="M70.3,58.3c0-0.6,0.1-0.8,0.8-0.8c0.7,0,0.9,0.2,0.9,0.8c0,0.6-0.1,0.8-0.9,0.8
			C70.4,59.1,70.3,58.9,70.3,58.3z M70.5,68v-7.4h1.3V68H70.5z"/>
		<path id="XMLID_851_" class="st0" d="M78.2,61.8c-0.8,0-1.4,0.3-1.8,0.8c-0.2,0.2-0.3,0.5-0.3,0.8V68h-1.3v-7.4h1l0.2,1.1
			c0.6-0.8,1.7-1.2,2.5-1.2c0.4,0,0.6,0.2,0.6,0.6c0,0.3,0,0.5-0.1,0.7C78.6,61.8,78.4,61.8,78.2,61.8z"/>
		<path id="XMLID_848_" class="st0" d="M80.3,64.3c0-2.7,1.5-3.8,3.3-3.8c1.9,0,3.3,1,3.3,3.8s-1.5,3.8-3.3,3.8
			C81.8,68.1,80.3,67.1,80.3,64.3z M85.5,64.3c0-2.2-0.9-2.7-1.9-2.7c-1.1,0-1.9,0.5-1.9,2.7c0,2.2,0.9,2.8,1.9,2.8
			C84.7,67.1,85.5,66.5,85.5,64.3z"/>
		<path id="XMLID_845_" class="st0" d="M93,68.1c-0.8,0-1.7-0.4-2.2-1v4.3h-1.3V60.6h1l0.2,1c0.6-0.7,1.5-1.2,2.3-1.2
			c1.5,0,2.8,0.9,2.8,3.8C95.8,67.2,94.5,68.1,93,68.1z M92.7,61.5c-0.7,0-1.3,0.4-1.7,0.9c-0.1,0.2-0.2,0.5-0.2,1v1.6
			c0,0.6,0.1,0.9,0.2,1c0.4,0.5,1,0.9,1.7,0.9c0.9,0,1.7-0.5,1.7-2.8C94.4,62,93.6,61.5,92.7,61.5z"/>
		<path id="XMLID_843_" class="st0" d="M101.7,61.8c-0.8,0-1.4,0.3-1.8,0.8c-0.2,0.2-0.3,0.5-0.3,0.8V68h-1.3v-7.4h1l0.2,1.1
			c0.6-0.8,1.7-1.2,2.5-1.2c0.4,0,0.6,0.2,0.6,0.6c0,0.3,0,0.5-0.1,0.7C102.2,61.8,101.9,61.8,101.7,61.8z"/>
		<path id="XMLID_840_" class="st0" d="M108.8,68l-0.2-1.2c-0.6,0.8-1.6,1.3-2.6,1.3c-1.3,0-2.2-0.7-2.2-2.1c0-1.2,0.9-2.6,4.3-2.6
			h0.4V63c0-0.9-0.3-1.5-1.4-1.5c-0.8,0-1.7,0.2-2.5,0.6c-0.1-0.2-0.2-0.5-0.2-0.7c0-0.3,0.1-0.5,0.5-0.6c0.6-0.2,1.5-0.4,2.3-0.4
			c2.2,0,2.7,1.2,2.7,2.8V68H108.8z M108.1,66.2c0.2-0.2,0.3-0.5,0.3-0.8v-1.2h-0.3c-2.5,0-3,0.9-3,1.7c0,0.8,0.5,1.2,1.2,1.2
			C107.1,67.1,107.7,66.7,108.1,66.2z"/>
		<path id="XMLID_838_" class="st0" d="M115.6,61.6c-1.2,0-2.1,0.6-2.1,2.7c0,2.1,0.9,2.7,2.1,2.7c0.6,0,1.1-0.1,2-0.5
			c0.1,0.2,0.2,0.5,0.2,0.7c0,0.3-0.1,0.5-0.5,0.6c-0.6,0.2-1.2,0.3-1.9,0.3c-1.8,0-3.3-1-3.3-3.8c0-2.8,1.5-3.8,3.3-3.8
			c0.7,0,1.2,0.1,1.8,0.2c0.4,0.1,0.5,0.3,0.5,0.6c0,0.3-0.1,0.5-0.2,0.7C116.7,61.7,116.2,61.6,115.6,61.6z"/>
		<path id="XMLID_687_" class="st0" d="M119.4,60.8l1.1-0.2l0.3-1.7h1v1.7h2.2v1h-2.2v4.1c0,1,0.4,1.3,1.1,1.3
			c0.3,0,0.6-0.1,1.1-0.3c0.1,0.2,0.2,0.4,0.2,0.6c0,0.3-0.1,0.5-0.5,0.6c-0.3,0.1-0.7,0.2-1.2,0.2c-1.1,0-2-0.5-2-2.1v-4.4h-1.1
			V60.8z"/>
		<path id="XMLID_684_" class="st0" d="M126.2,58.3c0-0.6,0.1-0.8,0.8-0.8c0.7,0,0.9,0.2,0.9,0.8c0,0.6-0.1,0.8-0.9,0.8
			C126.3,59.1,126.2,58.9,126.2,58.3z M126.3,68v-7.4h1.3V68H126.3z"/>
		<path id="XMLID_682_" class="st0" d="M133.6,61.6c-1.2,0-2.1,0.6-2.1,2.7c0,2.1,0.9,2.7,2.1,2.7c0.6,0,1.1-0.1,2-0.5
			c0.1,0.2,0.2,0.5,0.2,0.7c0,0.3-0.1,0.5-0.5,0.6c-0.6,0.2-1.2,0.3-1.9,0.3c-1.8,0-3.3-1-3.3-3.8c0-2.8,1.5-3.8,3.3-3.8
			c0.7,0,1.2,0.1,1.8,0.2c0.3,0.1,0.5,0.3,0.5,0.6c0,0.3-0.1,0.5-0.2,0.7C134.7,61.7,134.2,61.6,133.6,61.6z"/>
		<path id="XMLID_679_" class="st0" d="M146.7,68l-0.2-1.2c-0.6,0.8-1.6,1.3-2.6,1.3c-1.3,0-2.2-0.7-2.2-2.1c0-1.2,0.9-2.6,4.3-2.6
			h0.4V63c0-0.9-0.3-1.5-1.4-1.5c-0.8,0-1.7,0.2-2.5,0.6c-0.1-0.2-0.2-0.5-0.2-0.7c0-0.3,0.1-0.5,0.5-0.6c0.6-0.2,1.5-0.4,2.3-0.4
			c2.2,0,2.7,1.2,2.7,2.8V68H146.7z M146.1,66.2c0.2-0.2,0.3-0.5,0.3-0.8v-1.2h-0.3c-2.5,0-3,0.9-3,1.7c0,0.8,0.5,1.2,1.2,1.2
			S145.7,66.7,146.1,66.2z"/>
		<path id="XMLID_677_" class="st0" d="M155.3,68v-4.9c0-0.8-0.3-1.4-1.3-1.4c-0.7,0-1.4,0.4-1.8,0.9c-0.2,0.2-0.3,0.5-0.3,0.8V68
			h-1.3v-7.4h1l0.2,1.1c0.7-0.8,1.6-1.2,2.5-1.2c1.6,0,2.3,0.9,2.3,2.3V68H155.3z"/>
		<path id="XMLID_674_" class="st0" d="M161.9,60.5c0.8,0,1.6,0.4,2.2,1V57h1.3V68h-0.9l-0.2-1c-0.6,0.7-1.5,1.1-2.3,1.1
			c-1.5,0-2.8-0.9-2.8-3.8C159,61.4,160.3,60.5,161.9,60.5z M162.1,67c0.7,0,1.3-0.4,1.7-0.9c0.1-0.2,0.2-0.5,0.2-1v-1.6
			c0-0.6-0.1-0.8-0.2-1c-0.4-0.5-0.9-0.9-1.7-0.9c-0.9,0-1.7,0.5-1.7,2.8C160.4,66.6,161.2,67,162.1,67z"/>
		<path id="XMLID_672_" class="st0" d="M178.6,68v-4.9h-4.6V68h-1.4V57.5h1.4v4.4h4.6v-4.4h1.4V68H178.6z"/>
		<path id="XMLID_669_" class="st0" d="M184,64.6c0.1,2,1,2.4,2.3,2.4c0.7,0,1.4-0.2,2.2-0.6c0.1,0.2,0.2,0.5,0.2,0.7
			c0,0.3-0.1,0.4-0.5,0.6c-0.6,0.2-1.3,0.3-2,0.3c-2,0-3.6-0.9-3.6-3.8c0-2.7,1.5-3.8,3.3-3.8c1.9,0,2.9,0.9,2.9,2.2
			c0,1.5-1,2.1-3,2.1C185.2,64.8,184.6,64.8,184,64.6z M184,63.8c0.6,0.1,1.1,0.1,1.5,0.1c1.5,0,2-0.4,2-1.3c0-0.8-0.6-1.2-1.6-1.2
			C184.9,61.5,184.1,62,184,63.8z"/>
		<path id="XMLID_666_" class="st0" d="M195.8,68l-0.2-1.2c-0.6,0.8-1.6,1.3-2.6,1.3c-1.3,0-2.2-0.7-2.2-2.1c0-1.2,0.9-2.6,4.3-2.6
			h0.4V63c0-0.9-0.3-1.5-1.4-1.5c-0.8,0-1.7,0.2-2.5,0.6c-0.1-0.2-0.2-0.5-0.2-0.7c0-0.3,0.1-0.5,0.5-0.6c0.6-0.2,1.5-0.4,2.3-0.4
			c2.2,0,2.7,1.2,2.7,2.8V68H195.8z M195.1,66.2c0.2-0.2,0.3-0.5,0.3-0.8v-1.2h-0.3c-2.5,0-3,0.9-3,1.7c0,0.8,0.5,1.2,1.2,1.2
			S194.7,66.7,195.1,66.2z"/>
		<path id="XMLID_664_" class="st0" d="M199.7,68V63v-6h1.3v5.7V68H199.7z"/>
		<path id="XMLID_662_" class="st0" d="M203.2,60.8l1.1-0.2l0.3-1.7h1v1.7h2.2v1h-2.2v4.1c0,1,0.4,1.3,1.1,1.3
			c0.3,0,0.6-0.1,1.1-0.3c0.1,0.2,0.2,0.4,0.2,0.6c0,0.3-0.1,0.5-0.5,0.6c-0.3,0.1-0.7,0.2-1.2,0.2c-1.1,0-2-0.5-2-2.1v-4.4h-1.1
			V60.8z"/>
		<path id="XMLID_660_" class="st0" d="M214.8,68v-4.9c0-0.8-0.3-1.4-1.3-1.4c-0.7,0-1.4,0.4-1.8,0.9c-0.2,0.2-0.3,0.5-0.3,0.8V68
			h-1.3V57h1.3v4.6c0.6-0.7,1.6-1.1,2.4-1.1c1.6,0,2.3,0.9,2.3,2.3V68H214.8z"/>
		<path id="XMLID_658_" class="st0" d="M226.2,58.5c-1.5,0-2,0.7-2,1.6c0,0.9,0.6,1.4,2.2,1.8c2.1,0.5,3.2,1.4,3.2,3.1
			c0,1.8-1.4,3.1-3.8,3.1c-1,0-1.8-0.2-2.5-0.4c-0.5-0.2-0.6-0.4-0.6-0.7c0-0.3,0.1-0.6,0.3-0.9c0.9,0.5,1.9,0.8,2.9,0.8
			c1.6,0,2.3-0.7,2.3-1.7c0-1-0.6-1.6-2.5-2c-1.9-0.5-2.9-1.4-2.9-2.9c0-1.6,1.1-3,3.5-3c0.9,0,1.5,0.1,2.2,0.3
			c0.5,0.1,0.6,0.4,0.6,0.6c0,0.3-0.1,0.7-0.3,0.9C227.9,58.8,227.1,58.5,226.2,58.5z"/>
		<path id="XMLID_656_" class="st0" d="M235.1,61.6c-1.2,0-2.1,0.6-2.1,2.7c0,2.1,0.9,2.7,2.1,2.7c0.6,0,1.1-0.1,2-0.5
			c0.1,0.2,0.2,0.5,0.2,0.7c0,0.3-0.1,0.5-0.5,0.6c-0.6,0.2-1.2,0.3-1.9,0.3c-1.8,0-3.3-1-3.3-3.8c0-2.8,1.5-3.8,3.3-3.8
			c0.7,0,1.2,0.1,1.8,0.2c0.4,0.1,0.5,0.3,0.5,0.6c0,0.3-0.1,0.5-0.2,0.7C236.2,61.7,235.6,61.6,235.1,61.6z"/>
		<path id="XMLID_653_" class="st0" d="M239.5,58.3c0-0.6,0.1-0.8,0.8-0.8c0.7,0,0.9,0.2,0.9,0.8c0,0.6-0.1,0.8-0.9,0.8
			C239.6,59.1,239.5,58.9,239.5,58.3z M239.6,68v-7.4h1.3V68H239.6z"/>
		<path id="XMLID_650_" class="st0" d="M244.9,64.6c0.1,2,1.1,2.4,2.3,2.4c0.7,0,1.4-0.2,2.2-0.6c0.1,0.2,0.2,0.5,0.2,0.7
			c0,0.3-0.1,0.4-0.5,0.6c-0.6,0.2-1.3,0.3-2,0.3c-2,0-3.6-0.9-3.6-3.8c0-2.7,1.5-3.8,3.3-3.8c1.9,0,2.9,0.9,2.9,2.2
			c0,1.5-1,2.1-3,2.1C246.1,64.8,245.5,64.8,244.9,64.6z M244.9,63.8c0.6,0.1,1.1,0.1,1.5,0.1c1.5,0,2-0.4,2-1.3
			c0-0.8-0.6-1.2-1.6-1.2C245.8,61.5,245,62,244.9,63.8z"/>
		<path id="XMLID_648_" class="st0" d="M256.9,68v-4.9c0-0.8-0.3-1.4-1.3-1.4c-0.7,0-1.4,0.4-1.8,0.9c-0.2,0.2-0.3,0.5-0.3,0.8V68
			h-1.3v-7.4h1l0.2,1.1c0.7-0.8,1.6-1.2,2.5-1.2c1.6,0,2.3,0.9,2.3,2.3V68H256.9z"/>
		<path id="XMLID_646_" class="st0" d="M264.1,61.6c-1.2,0-2.1,0.6-2.1,2.7c0,2.1,0.9,2.7,2.1,2.7c0.6,0,1.1-0.1,2-0.5
			c0.1,0.2,0.2,0.5,0.2,0.7c0,0.3-0.1,0.5-0.5,0.6c-0.6,0.2-1.2,0.3-1.9,0.3c-1.8,0-3.3-1-3.3-3.8c0-2.8,1.5-3.8,3.3-3.8
			c0.7,0,1.2,0.1,1.8,0.2c0.3,0.1,0.5,0.3,0.5,0.6c0,0.3-0.1,0.5-0.2,0.7C265.2,61.7,264.6,61.6,264.1,61.6z"/>
		<path id="XMLID_643_" class="st0" d="M269.6,64.6c0.1,2,1,2.4,2.3,2.4c0.7,0,1.4-0.2,2.2-0.6c0.1,0.2,0.2,0.5,0.2,0.7
			c0,0.3-0.1,0.4-0.5,0.6c-0.6,0.2-1.3,0.3-2,0.3c-2,0-3.6-0.9-3.6-3.8c0-2.7,1.5-3.8,3.3-3.8c1.9,0,2.9,0.9,2.9,2.2
			c0,1.5-1,2.1-3,2.1C270.9,64.8,270.2,64.8,269.6,64.6z M269.6,63.8c0.6,0.1,1.1,0.1,1.5,0.1c1.5,0,2-0.4,2-1.3
			c0-0.8-0.6-1.2-1.6-1.2C270.5,61.5,269.7,62,269.6,63.8z"/>
		<path id="XMLID_641_" class="st0" d="M279,61.5c-0.9,0-1.3,0.5-1.3,1c0,0.8,0.9,1.1,1.8,1.3c1.2,0.3,2.3,0.7,2.3,2.2
			c0,1.3-0.8,2.2-2.8,2.2c-0.9,0-1.5-0.1-2.1-0.3c-0.4-0.1-0.5-0.3-0.5-0.6c0-0.2,0.1-0.6,0.3-0.7c0.8,0.4,1.7,0.6,2.4,0.6
			c0.9,0,1.4-0.4,1.4-1.1c0-0.8-0.9-1.1-1.9-1.3c-1.2-0.3-2.2-0.7-2.2-2.1c0-1.1,0.9-2.1,2.8-2.1c0.7,0,1.2,0.1,1.7,0.2
			c0.4,0.1,0.5,0.3,0.5,0.6c0,0.3-0.1,0.5-0.3,0.7C280.4,61.7,279.7,61.5,279,61.5z"/>
	</g>
	<rect id="XMLID_541_" x="52.2" y="48.4" class="st1" width="230.6" height="0.9"/>
	<g id="XMLID_593_">
		<path id="XMLID_637_" class="st0" d="M57.5,1c1.2,0,2.4,0.1,3.6,0.5c0.8,0.2,1,0.6,1,1.1c0,0.5-0.2,1-0.5,1.5
			C60.4,3.3,59,3,57.6,3c-3,0-5,2.1-5,7.2c0,5,2,7.2,5,7.2c1.4,0,3-0.4,4.4-1.1c0.3,0.4,0.5,0.9,0.5,1.4c0,0.5-0.2,0.9-1,1.1
			c-1.3,0.4-2.5,0.6-3.8,0.6c-4.4,0-7.3-2.8-7.3-9.2C50.2,3.8,53.2,1,57.5,1z"/>
		<path id="XMLID_635_" class="st0" d="M65.5,19.1V9.3V0.5h2.2v8.9v9.7H65.5z"/>
		<path id="XMLID_632_" class="st0" d="M73.8,13.4c0.2,3.3,1.8,4,3.9,4c1.2,0,2.4-0.3,3.7-1c0.2,0.4,0.3,0.8,0.3,1.3
			c0,0.5-0.1,0.7-0.8,1c-1,0.4-2.1,0.6-3.4,0.6c-3.5,0-6.1-1.6-6.1-6.5c0-4.6,2.5-6.4,5.6-6.4c3.3,0,4.9,1.6,4.9,3.8
			c0,2.5-1.7,3.6-5.2,3.6C76,13.8,74.8,13.7,73.8,13.4z M73.8,12.1c1,0.1,1.8,0.2,2.5,0.2c2.5,0,3.4-0.7,3.4-2.2
			c0-1.3-0.9-2.1-2.7-2.1C75.4,8.1,74,8.9,73.8,12.1z"/>
		<path id="XMLID_630_" class="st0" d="M87.2,6.6c0.2,4.7,1,8,2.9,10.9c1.9-2.8,2.6-6.1,2.9-10.9h2.3c-0.3,5.6-1.9,9.6-4.4,12.5
			h-1.8c-2.5-2.9-4.1-6.9-4.4-12.5H87.2z"/>
		<path id="XMLID_627_" class="st0" d="M100.4,13.4c0.2,3.3,1.8,4,3.9,4c1.2,0,2.4-0.3,3.7-1c0.2,0.4,0.3,0.8,0.3,1.3
			c0,0.5-0.1,0.7-0.8,1c-1,0.4-2.1,0.6-3.4,0.6c-3.5,0-6.1-1.6-6.1-6.5c0-4.6,2.5-6.4,5.6-6.4c3.3,0,4.9,1.6,4.9,3.8
			c0,2.5-1.7,3.6-5.2,3.6C102.6,13.8,101.4,13.7,100.4,13.4z M100.4,12.1c1,0.1,1.8,0.2,2.5,0.2c2.5,0,3.4-0.7,3.4-2.2
			c0-1.3-0.9-2.1-2.7-2.1C101.9,8.1,100.6,8.9,100.4,12.1z"/>
		<path id="XMLID_625_" class="st0" d="M112.3,19.1V9V0.5h2.2v8.6v9.9H112.3z"/>
		<path id="XMLID_622_" class="st0" d="M126.4,19.1l-0.4-2c-1.1,1.4-2.8,2.2-4.3,2.2c-2.2,0-3.8-1.2-3.8-3.6c0-2.1,1.6-4.5,7.3-4.5
			h0.6v-0.6c0-1.5-0.6-2.5-2.4-2.5c-1.4,0-2.9,0.4-4.3,1c-0.2-0.4-0.4-0.8-0.4-1.3c0-0.5,0.2-0.8,0.8-1c1.1-0.4,2.5-0.6,3.8-0.6
			c3.8,0,4.7,2,4.7,4.7v8H126.4z M125.4,16c0.3-0.3,0.5-0.8,0.5-1.3v-2h-0.5c-4.2,0-5.1,1.5-5.1,2.9c0,1.3,0.9,2.1,2.1,2.1
			C123.5,17.6,124.7,16.9,125.4,16z"/>
		<path id="XMLID_620_" class="st0" d="M140.3,19.1v-8.3c0-1.3-0.5-2.4-2.2-2.4c-1.2,0-2.4,0.6-3,1.5c-0.3,0.3-0.4,0.8-0.4,1.4v7.9
			h-2.2V6.6h1.6l0.4,1.9c1.1-1.4,2.8-2.1,4.3-2.1c2.7,0,3.9,1.5,3.9,3.9v8.7H140.3z"/>
		<path id="XMLID_617_" class="st0" d="M151.1,6.4c1.4,0,2.8,0.6,3.7,1.7V0.5h2.2v18.6h-1.6l-0.4-1.7c-1,1.2-2.5,1.9-4,1.9
			c-2.6,0-4.7-1.5-4.7-6.4C146.3,7.9,148.5,6.4,151.1,6.4z M151.6,17.5c1.2,0,2.2-0.7,2.8-1.6c0.2-0.3,0.4-0.8,0.4-1.7v-2.7
			c0-0.9-0.2-1.4-0.4-1.7c-0.6-0.9-1.6-1.6-2.8-1.6c-1.6,0-2.9,0.8-2.9,4.7C148.6,16.7,150,17.5,151.6,17.5z"/>
		<path id="XMLID_615_" class="st0" d="M170.5,1.3v10.4c0,4,1.6,5.6,4.3,5.6c2.6,0,4.3-1.6,4.3-5.6V1.3h2.4v10.4
			c0,5.4-2.5,7.6-6.6,7.6c-4.1,0-6.6-2.3-6.6-7.6V1.3H170.5z"/>
		<path id="XMLID_613_" class="st0" d="M193.4,19.1v-8.3c0-1.3-0.5-2.4-2.2-2.4c-1.2,0-2.4,0.6-3,1.5c-0.3,0.3-0.4,0.8-0.4,1.4v7.9
			h-2.2V6.6h1.6l0.4,1.9c1.1-1.4,2.8-2.1,4.3-2.1c2.7,0,3.9,1.5,3.9,3.9v8.7H193.4z"/>
		<path id="XMLID_610_" class="st0" d="M199.6,2.6c0-1,0.2-1.4,1.4-1.4c1.2,0,1.5,0.3,1.5,1.4c0,1-0.2,1.4-1.5,1.4
			C199.8,4,199.6,3.6,199.6,2.6z M199.9,19.1V6.6h2.2v12.5H199.9z"/>
		<path id="XMLID_608_" class="st0" d="M207.8,6.6c0.2,4.7,1,8,2.9,10.9c1.9-2.8,2.6-6.1,2.9-10.9h2.4c-0.3,5.6-1.9,9.6-4.4,12.5
			h-1.8c-2.5-2.9-4.1-6.9-4.4-12.5H207.8z"/>
		<path id="XMLID_605_" class="st0" d="M221,13.4c0.2,3.3,1.8,4,3.9,4c1.2,0,2.3-0.3,3.7-1c0.2,0.4,0.3,0.8,0.3,1.3
			c0,0.5-0.1,0.7-0.8,1c-1,0.4-2.1,0.6-3.4,0.6c-3.5,0-6.1-1.6-6.1-6.5c0-4.6,2.5-6.4,5.6-6.4c3.3,0,4.9,1.6,4.9,3.8
			c0,2.5-1.7,3.6-5.2,3.6C223.2,13.8,222,13.7,221,13.4z M221,12.1c1,0.1,1.8,0.2,2.5,0.2c2.5,0,3.4-0.7,3.4-2.2
			c0-1.3-0.9-2.1-2.7-2.1C222.5,8.1,221.2,8.9,221,12.1z"/>
		<path id="XMLID_603_" class="st0" d="M238.6,8.5c-1.3,0-2.3,0.4-3.1,1.3c-0.3,0.3-0.4,0.8-0.4,1.4v7.9h-2.2V6.6h1.6l0.4,1.9
			c1.1-1.3,2.9-2.1,4.3-2.1c0.7,0,1,0.3,1,1c0,0.4-0.1,0.8-0.2,1.2C239.4,8.6,239,8.5,238.6,8.5z"/>
		<path id="XMLID_601_" class="st0" d="M247.1,8c-1.5,0-2.2,0.8-2.2,1.8c0,1.4,1.5,1.8,3,2.2c2,0.4,3.9,1.3,3.9,3.7
			c0,2.1-1.4,3.7-4.7,3.7c-1.5,0-2.5-0.2-3.5-0.5c-0.6-0.2-0.9-0.5-0.9-1c0-0.4,0.2-0.9,0.5-1.3c1.4,0.7,2.8,1.1,4.1,1.1
			c1.6,0,2.4-0.6,2.4-1.9c0-1.4-1.6-1.8-3.1-2.2c-2-0.4-3.8-1.2-3.8-3.6c0-1.9,1.5-3.6,4.7-3.6c1.1,0,2,0.1,2.9,0.4
			c0.7,0.2,0.9,0.5,0.9,1c0,0.4-0.2,0.9-0.5,1.2C249.5,8.4,248.2,8,247.1,8z"/>
		<path id="XMLID_598_" class="st0" d="M254.9,2.6c0-1,0.2-1.4,1.4-1.4c1.2,0,1.5,0.3,1.5,1.4c0,1-0.2,1.4-1.5,1.4
			C255.1,4,254.9,3.6,254.9,2.6z M255.2,19.1V6.6h2.2v12.5H255.2z"/>
		<path id="XMLID_596_" class="st0" d="M260.6,6.9l1.9-0.3l0.5-2.9h1.7v2.9h3.8v1.7h-3.8v7c0,1.6,0.6,2.2,1.9,2.2
			c0.5,0,1-0.1,1.8-0.5c0.2,0.3,0.3,0.7,0.3,1.1c0,0.5-0.1,0.8-0.8,1c-0.6,0.2-1.2,0.3-2.1,0.3c-1.9,0-3.4-0.8-3.4-3.5V8.3h-1.8V6.9
			z"/>
		<path id="XMLID_594_" class="st0" d="M281.8,6.6c-0.4,7.5-3.6,13-7.6,17.4c-0.6,0.7-1,0.9-1.4,0.9c-0.6,0-1.1-0.4-1.6-1.5
			c1.8-1.3,3.3-2.7,4.4-4.3c-2.6-3-4.1-7-4.4-12.5h2.4c0.2,4.8,1,8.1,3,11c1.8-3,2.6-6.6,2.8-11H281.8z"/>
	</g>
	<g id="XMLID_570_">
		<path id="XMLID_591_" class="st0" d="M59.4,29.6c-0.4,1.9-1.7,3.7-3.5,4.9c1.9,1.2,3.3,3.3,3.7,5.6h-1.5c-0.4-2-1.4-3.8-3.2-5
			c-0.4,0.2-0.8,0.4-1.2,0.5v4.5h-1.4V29.6h1.4v5c2.1-0.9,3.7-2.7,4.3-5H59.4z"/>
		<path id="XMLID_588_" class="st0" d="M63.1,40.1c0.3-4.2,1.6-8.3,3.5-10.5h1.3c1.9,2.2,3.2,6.3,3.5,10.5h-1.4
			c-0.1-0.9-0.1-1.8-0.3-2.6h-4.8c-0.1,0.8-0.2,1.7-0.3,2.6H63.1z M67.2,30.8c-1,1.5-1.8,3.4-2.2,5.5h4.4
			C68.9,34.2,68.2,32.3,67.2,30.8z"/>
		<path id="XMLID_586_" class="st0" d="M82.2,40.1c-0.9-3-2.9-6.5-5.1-8.6v8.6h-1.4V29.6h1c2.2,1.8,4.1,4.6,5.2,7v-7h1.4v10.5H82.2z
			"/>
		<path id="XMLID_584_" class="st0" d="M91.2,30.7c-1.5,0-2,0.7-2,1.6c0,0.9,0.6,1.4,2.2,1.8c2.1,0.5,3.2,1.4,3.2,3.1
			c0,1.8-1.4,3.1-3.8,3.1c-1,0-1.8-0.2-2.5-0.4c-0.5-0.2-0.6-0.4-0.6-0.7c0-0.3,0.1-0.6,0.3-0.9C89,38.7,90,39,90.9,39
			c1.6,0,2.3-0.7,2.3-1.7c0-1-0.6-1.6-2.5-2c-1.9-0.5-2.9-1.4-2.9-2.9c0-1.6,1.1-3,3.4-3c0.9,0,1.5,0.1,2.2,0.3
			c0.5,0.1,0.6,0.3,0.6,0.6c0,0.3-0.1,0.7-0.3,0.9C93,30.9,92.1,30.7,91.2,30.7z"/>
		<path id="XMLID_581_" class="st0" d="M98.4,40.1c0.3-4.2,1.6-8.3,3.5-10.5h1.3c1.9,2.2,3.2,6.3,3.5,10.5h-1.4
			c-0.1-0.9-0.1-1.8-0.3-2.6h-4.8c-0.1,0.8-0.2,1.7-0.3,2.6H98.4z M102.5,30.8c-1,1.5-1.8,3.4-2.2,5.5h4.4
			C104.3,34.2,103.5,32.3,102.5,30.8z"/>
		<path id="XMLID_579_" class="st0" d="M113.9,30.7c-1.5,0-2,0.7-2,1.6c0,0.9,0.6,1.4,2.2,1.8c2.1,0.5,3.2,1.4,3.2,3.1
			c0,1.8-1.4,3.1-3.8,3.1c-1,0-1.8-0.2-2.5-0.4c-0.5-0.2-0.6-0.4-0.6-0.7c0-0.3,0.1-0.6,0.3-0.9c0.9,0.5,1.9,0.8,2.9,0.8
			c1.6,0,2.3-0.7,2.3-1.7c0-1-0.6-1.6-2.5-2c-1.9-0.5-2.9-1.4-2.9-2.9c0-1.6,1.1-3,3.4-3c0.9,0,1.5,0.1,2.2,0.3
			c0.5,0.1,0.6,0.3,0.6,0.6c0,0.3-0.1,0.7-0.3,0.9C115.7,30.9,114.8,30.7,113.9,30.7z"/>
		<path id="XMLID_577_" class="st0" d="M131.6,29.5c0.7,0,1.4,0.1,2.1,0.3c0.5,0.1,0.6,0.3,0.6,0.6c0,0.3-0.1,0.6-0.3,0.9
			c-0.8-0.4-1.6-0.6-2.4-0.6c-1.8,0-2.9,1.2-2.9,4.2c0,3,1.2,4.2,2.9,4.2c0.8,0,1.8-0.2,2.6-0.7c0.2,0.2,0.3,0.5,0.3,0.8
			c0,0.3-0.1,0.5-0.6,0.6c-0.7,0.2-1.5,0.3-2.3,0.3c-2.6,0-4.3-1.7-4.3-5.4C127.3,31.1,129,29.5,131.6,29.5z"/>
		<path id="XMLID_575_" class="st0" d="M138.6,29.6h1.4v5v5.5h-1.4v-5.5V29.6z"/>
		<path id="XMLID_573_" class="st0" d="M148.9,30.8v9.3h-1.4v-9.3h-3.5v-1.2h8.3v1.2H148.9z"/>
		<path id="XMLID_571_" class="st0" d="M157,29.6c0.2,2.4,1,4.4,2.5,5.9c1.6-1.5,2.3-3.5,2.5-5.9h1.4c-0.2,2.6-1.3,5.2-3.3,6.9v3.6
			h-1.4v-3.6c-2-1.7-3.1-4.3-3.3-6.9H157z"/>
	</g>
	<path id="XMLID_773_" class="st1" d="M19.7,5.8c0,0,3.9,1.8,3.9,4.1c0,2.3-3.9,4.1-3.9,4.1s-3.9-1.8-3.9-4.1
		C15.8,7.7,19.7,5.8,19.7,5.8z"/>
	<path id="XMLID_769_" class="st2" d="M29.5,27.1c-2.2-0.9-4.1-2.8-5-3.8c1-1.1,2.9-3,5.2-3.9c0.6-1.1,1.1-2.1,1.4-3.1
		c-5.3,0.6-9.3,5.9-9.5,6.2l-0.6,0.8l0.6,0.8c0.2,0.2,4.1,5.6,9.4,6.2C30.7,29.2,30.2,28.1,29.5,27.1z"/>
	<path id="XMLID_767_" class="st2" d="M17.6,22.4c-0.2-0.2-4.2-5.6-9.5-6.2c0.3,0.9,0.8,2,1.4,3.1c2.3,0.9,4.2,2.8,5.2,3.9
		c-0.9,1.1-2.8,2.9-5,3.8c-0.7,1.1-1.2,2.2-1.6,3.1c5.3-0.6,9.2-5.9,9.4-6.2l0.6-0.8L17.6,22.4z"/>
	<g id="XMLID_762_">
		<path id="XMLID_2_" class="st3" d="M24,22.5C23.7,22,16.6,11.3,7.4,11.3c0,0,0,0,0,0v1.4c0,0.4,0.1,0.9,0.2,1.4
			c6.3,0.1,11.8,6.8,13.6,9.1c-1.7,2.3-7.2,9-13.5,9.1C7.5,33,7.4,33.5,7.4,34v1.2c9.2,0,16.3-10.7,16.6-11.2l0.5-0.8L24,22.5z"/>
	</g>
	<g id="XMLID_756_">
		<path id="XMLID_763_" class="st1" d="M19.6,39.6c-1.9,0-4.7-1.1-7.6-3c-1,0.3-2.1,0.6-3.3,0.7c3.7,3.1,7.9,4.9,10.9,4.9
			c3,0,7.3-1.7,11.1-4.8c-1.1-0.1-2.3-0.3-3.4-0.7C24.6,38.5,21.8,39.6,19.6,39.6z"/>
		<path id="XMLID_784_" class="st1" d="M38.6,4.6C29.3,0.1,20,0,19.6,0S10,0.1,0.7,4.6C0.3,4.8,0,5.2,0,5.7v14.6
			c0,5.2,2.2,9.8,5.2,13.4c0-0.6,0.1-1.2,0.2-1.8l0.3-1.6c-1.9-2.8-3.3-6.2-3.3-10V6.5c8.5-3.9,17-4,17.1-4c0.1,0,8.6,0,17.1,4v13.8
			c0,3.8-1.3,7.2-3.2,10.1c-0.7,1.2-1.4,1.9-2.2,1.9c-6.2-0.4-11.5-6.8-13.2-9.1c1.7-2.3,7.3-9,13.6-9.1c0.1-0.4,0.1-0.8,0.2-1.2
			v-1.6c-9.2,0-16.3,10.7-16.6,11.2l-0.5,0.8l0.5,0.8c0.3,0.5,7.4,11.2,16.6,11.2c1.1,0,2.2-1.1,2.2-1.1c3-3.6,5.2-8.2,5.2-13.7V5.7
			C39.3,5.2,39,4.8,38.6,4.6z"/>
	</g>
</g>
</svg>
